<svg width="149" height="170" viewBox="0 0 149 170" fill="none" xmlns="http://www.w3.org/2000/svg">
<path d="M2.90662 58.0899C2.90662 55.6299 4.89662 53.6399 7.35662 53.6399H35.0666V62.5499H7.36662C4.90662 62.5499 2.91662 60.5599 2.91662 58.0999L2.90662 58.0899Z" fill="#C9A063"/>
<path d="M2.90662 84.2C2.90662 81.74 4.89662 79.75 7.35662 79.75H35.0666V88.66H7.36662C4.90662 88.66 2.91662 86.67 2.91662 84.21L2.90662 84.2Z" fill="#C9A063"/>
<path d="M31.6466 134.89L91.2366 75.2999C74.7866 58.8499 48.0966 58.8499 31.6466 75.2999C15.1866 91.7599 15.1966 118.44 31.6466 134.89Z" fill="#4F7EF2"/>
<path d="M31.6466 0L91.2366 59.59C74.7866 76.04 48.0966 76.04 31.6466 59.59C15.1766 43.13 15.1866 16.45 31.6466 0Z" fill="#4F7EF2"/>
<path d="M103.807 106.86C125.572 106.86 143.217 89.2156 143.217 67.45C143.217 45.6845 125.572 28.04 103.807 28.04C82.0411 28.04 64.3966 45.6845 64.3966 67.45C64.3966 89.2156 82.0411 106.86 103.807 106.86Z" fill="#4F7EF2"/>
<path d="M129.547 59.4901C131.319 59.4901 132.757 58.0529 132.757 56.2801C132.757 54.5072 131.319 53.0701 129.547 53.0701C127.774 53.0701 126.337 54.5072 126.337 56.2801C126.337 58.0529 127.774 59.4901 129.547 59.4901Z" fill="#452018"/>
<path d="M113.517 70.63C115.289 70.63 116.727 69.1928 116.727 67.42C116.727 65.6471 115.289 64.21 113.517 64.21C111.744 64.21 110.307 65.6471 110.307 67.42C110.307 69.1928 111.744 70.63 113.517 70.63Z" fill="#452018"/>
<path d="M138.377 76.34H120.727C120.727 71.47 124.677 67.52 129.547 67.52C134.427 67.52 138.367 71.47 138.367 76.34H138.377Z" fill="#FDCB00"/>
<path d="M9.82662 149.74C8.92662 149.74 8.00662 149.48 7.20662 148.94C4.98662 147.45 3.20662 146.15 1.90662 145.19C-0.183378 143.64 -0.623378 140.69 0.926622 138.6C2.47662 136.51 5.42662 136.07 7.51662 137.62C8.73662 138.53 10.4066 139.74 12.4666 141.13C14.6266 142.58 15.2066 145.51 13.7466 147.67C12.8366 149.02 11.3466 149.76 9.82662 149.76V149.74Z" fill="#F4DF9C"/>
<path d="M74.0166 169.66C71.9366 169.66 69.8166 169.6 67.7366 169.49C65.1366 169.35 63.1466 167.13 63.2866 164.53C63.4266 161.93 65.6166 159.88 68.2466 160.08C72.2166 160.3 76.2566 160.28 80.1566 160.06C82.7566 159.93 84.9866 161.9 85.1266 164.5C85.2766 167.1 83.2866 169.32 80.6866 169.47C78.4966 169.59 76.2466 169.66 74.0166 169.66ZM55.6466 168.13C55.3866 168.13 55.1266 168.11 54.8666 168.07C50.6366 167.36 46.3866 166.41 42.2366 165.23C39.7366 164.52 38.2766 161.91 38.9866 159.41C39.6966 156.9 42.3066 155.45 44.8066 156.16C48.6266 157.24 52.5366 158.12 56.4266 158.77C58.9966 159.2 60.7266 161.63 60.2966 164.2C59.9066 166.5 57.9166 168.13 55.6566 168.13H55.6466ZM92.7666 168.08C90.5066 168.08 88.5166 166.46 88.1266 164.16C87.6866 161.59 89.4166 159.16 91.9866 158.72C95.8866 158.06 99.7866 157.16 103.577 156.06C106.077 155.34 108.697 156.77 109.417 159.27C110.147 161.77 108.707 164.38 106.207 165.11C102.067 166.31 97.8166 167.29 93.5766 168.01C93.3066 168.06 93.0466 168.08 92.7766 168.08H92.7666ZM31.7566 161.37C31.1666 161.37 30.5766 161.26 29.9966 161.03C26.0266 159.43 22.0866 157.59 18.2866 155.57C15.9866 154.35 15.1166 151.49 16.3366 149.2C17.5566 146.91 20.4166 146.03 22.7066 147.25C26.2166 149.12 29.8566 150.81 33.5266 152.29C35.9366 153.26 37.1066 156.01 36.1366 158.43C35.3966 160.27 33.6266 161.38 31.7666 161.38L31.7566 161.37ZM116.607 161.17C114.757 161.17 113.007 160.08 112.257 158.27C111.257 155.87 112.387 153.11 114.787 152.1C118.437 150.58 122.037 148.83 125.497 146.91C127.777 145.64 130.647 146.47 131.907 148.74C133.177 151.02 132.357 153.89 130.077 155.15C126.317 157.24 122.387 159.14 118.417 160.8C117.827 161.05 117.207 161.17 116.607 161.17Z" fill="#F4DF9C"/>
<path d="M138.327 149.1C136.857 149.1 135.407 148.41 134.487 147.12C132.977 145 133.467 142.06 135.587 140.55C137.677 139.06 139.337 137.76 140.397 136.91C142.437 135.29 145.397 135.63 147.017 137.66C148.637 139.7 148.297 142.66 146.267 144.28C145.117 145.19 143.327 146.6 141.057 148.22C140.227 148.81 139.267 149.1 138.327 149.1Z" fill="#F4DF9C"/>
</svg>
